HIERARCHY
ROOT Hips
{
	OFFSET 0.00000 0.00000 0.00000
	CHANNELS 6 Xposition Yposition Zposition Zrotation Yrotation Xrotation 
	JOINT LHipJoint
	{
		OFFSET 0 0 0
		CHANNELS 3 Zrotation Yrotation Xrotation
		JOINT LeftUpLeg
		{
			OFFSET 1.81424 -1.42316 1.18090
			CHANNELS 3 Zrotation Yrotation Xrotation
			JOINT LeftLeg
			{
				OFFSET 2.15837 -5.93008 0.00000
				CHANNELS 3 Zrotation Yrotation Xrotation
				JOINT LeftFoot
				{
					OFFSET 2.51759 -6.91701 0.00000
					CHANNELS 3 Zrotation Yrotation Xrotation
					JOINT LeftToeBase
					{
						OFFSET 0.18318 -0.50327 1.95113
						CHANNELS 3 Zrotation Yrotation Xrotation
						End Site
						{
							OFFSET 0.00000 -0.00000 1.01524
						}
					}
				}
			}
		}
	}
	JOINT RHipJoint
	{
		OFFSET 0 0 0
		CHANNELS 3 Zrotation Yrotation Xrotation
		JOINT RightUpLeg
		{
			OFFSET -1.43917 -1.42316 1.18090
			CHANNELS 3 Zrotation Yrotation Xrotation
			JOINT RightLeg
			{
				OFFSET -2.25237 -6.18833 0.00000
				CHANNELS 3 Zrotation Yrotation Xrotation
				JOINT RightFoot
				{
					OFFSET -2.46496 -6.77243 0.00000
					CHANNELS 3 Zrotation Yrotation Xrotation
					JOINT RightToeBase
					{
						OFFSET -0.26285 -0.72219 1.76148
						CHANNELS 3 Zrotation Yrotation Xrotation
						End Site
						{
							OFFSET -0.00000 -0.00000 0.95109
						}
					}
				}
			}
		}
	}
	JOINT LowerBack
	{
		OFFSET 0 0 0
		CHANNELS 3 Zrotation Yrotation Xrotation
		JOINT Spine
		{
			OFFSET -0.08725 1.93754 -0.28890
			CHANNELS 3 Zrotation Yrotation Xrotation
			JOINT Spine1
			{
				OFFSET 0.01195 1.94849 0.05967
				CHANNELS 3 Zrotation Yrotation Xrotation
				JOINT Neck
				{
					OFFSET 0 0 0
					CHANNELS 3 Zrotation Yrotation Xrotation
					JOINT Neck1
					{
						OFFSET 0.02762 1.60124 0.34160
						CHANNELS 3 Zrotation Yrotation Xrotation
						JOINT Head
						{
							OFFSET -0.04785 1.66713 -0.24070
							CHANNELS 3 Zrotation Yrotation Xrotation
							End Site
							{
								OFFSET -0.02188 1.68591 -0.11959
							}
						}
					}
				}
				JOINT LeftShoulder
				{
					OFFSET 0 0 0
					CHANNELS 3 Zrotation Yrotation Xrotation
					JOINT LeftArm
					{
						OFFSET 2.59610 1.78696 -0.28854
						CHANNELS 3 Zrotation Yrotation Xrotation
						JOINT LeftForeArm
						{
							OFFSET 5.17853 -0.00000 0.00000
							CHANNELS 3 Zrotation Yrotation Xrotation
							JOINT LeftHand
							{
								OFFSET 3.40399 -0.00000 -0.00000
								CHANNELS 3 Zrotation Yrotation Xrotation
								JOINT LeftFingerBase
								{
									OFFSET 0 0 0
									CHANNELS 3 Zrotation Yrotation Xrotation
									JOINT LeftHandIndex1
									{
										OFFSET 0.70896 -0.00000 -0.00000
										CHANNELS 3 Zrotation Yrotation Xrotation
										End Site
										{
											OFFSET 0.57159 -0.00000 -0.00000
										}
									}
								}
								JOINT LThumb
								{
									OFFSET 0 0 0
									CHANNELS 3 Zrotation Yrotation Xrotation
									End Site
									{
										OFFSET 0.58031 -0.00000 0.58031
									}
								}
							}
						}
					}
				}
				JOINT RightShoulder
				{
					OFFSET 0 0 0
					CHANNELS 3 Zrotation Yrotation Xrotation
					JOINT RightArm
					{
						OFFSET -2.87749 1.55486 -0.73085
						CHANNELS 3 Zrotation Yrotation Xrotation
						JOINT RightForeArm
						{
							OFFSET -5.42351 -0.00000 -0.00000
							CHANNELS 3 Zrotation Yrotation Xrotation
							JOINT RightHand
							{
								OFFSET -3.42066 -0.00000 -0.00000
								CHANNELS 3 Zrotation Yrotation Xrotation
								JOINT RightFingerBase
								{
									OFFSET 0 0 0
									CHANNELS 3 Zrotation Yrotation Xrotation
									JOINT RightHandIndex1
									{
										OFFSET -0.74361 -0.00000 -0.00000
										CHANNELS 3 Zrotation Yrotation Xrotation
										End Site
										{
											OFFSET -0.59952 -0.00000 -0.00000
										}
									}
								}
								JOINT RThumb
								{
									OFFSET 0 0 0
									CHANNELS 3 Zrotation Yrotation Xrotation
									End Site
									{
										OFFSET -0.60867 -0.00000 0.60867
									}
								}
							}
						}
					}
				}
			}
		}
	}
}
MOTION
Frames: 8
Frame Time: 0.0512821
0.00 0.00 0.00 62.5654 74.0081 21.2992 0.0000 0.0000 0.0000 19.7811 45.1622 -64.5267 35.1804 13.1777 139.9626 -14.3321 -54.1203 13.1670 0.4712 4.4027 12.2125 0.0000 0.0000 0.0000 8.9274 -11.1040 -93.9369 -30.7193 -16.9850 122.9442 -0.7122 3.6528 -15.1242 -0.0233 -0.9856 2.7092 -5.7314 0.9588 35.6606 0.7056 0.8053 12.9260 3.4338 0.8542 -3.6757 5.0730 -0.0706 -10.0588 -6.3452 2.4815 37.1629 -3.0263 1.5135 14.6156 0.0000 0.0000 0.0000 -49.4466 -14.9536 53.6843 19.4995 -30.0346 -5.2785 -0.0000 0.0000 -31.2251 21.1362 -24.6662 -9.1650 -7.1250 0.0000 -0.0000 -5.0828 3.8550 4.7486 0.0000 0.0000 0.0000 86.8252 -3.0850 -17.5736 -1.5064 2.6070 -0.0343 0.0000 0.0000 7.9018 -35.7132 29.2502 -19.3555 7.1250 -0.0000 -0.0000 -2.7750 4.5794 -2.9911
0.00 0.00 0.00 58.9006 72.3271 18.6963 0.0000 0.0000 0.0000 18.7750 42.5851 -62.2689 34.6350 13.7834 137.6234 -13.7485 -52.4373 19.3839 0.7186 5.4170 15.1018 0.0000 0.0000 0.0000 5.8176 -19.3730 -95.9228 -34.7533 -13.6563 138.1223 -0.6303 8.7124 -14.5105 -0.0078 0.5692 -1.5641 -4.2054 0.1339 35.1793 2.2070 0.4531 13.7007 4.3447 0.6633 -2.7005 4.9056 -0.0268 -11.1341 -8.2666 3.2086 37.1806 -3.7123 1.5334 14.9772 0.0000 0.0000 0.0000 -44.3890 -21.2896 53.9279 21.4110 -32.3050 -6.2682 -0.0000 0.0000 -30.0085 22.4871 -26.8659 -10.5956 -7.1250 0.0000 -0.0000 -4.5139 1.3233 4.4223 0.0000 0.0000 0.0000 82.7009 0.2360 -30.7825 -0.8287 1.4350 -0.0104 0.0000 0.0000 22.8879 -35.0771 28.7007 -18.6355 7.1250 -0.0000 -0.0000 -2.5348 3.7734 -2.6987
0.00 0.00 0.00 53.1891 64.7315 20.1743 0.0000 0.0000 0.0000 10.1972 39.9607 -63.2627 33.7029 14.7102 133.8371 -11.2155 -48.7050 24.2349 1.3977 7.4790 21.1424 0.0000 0.0000 0.0000 -4.8225 -17.6967 -91.6637 -35.9994 -12.1612 143.6954 -0.9027 12.8424 -17.9722 -0.0253 -1.0270 2.8232 -2.7001 -1.1526 36.0732 4.1825 -0.6272 13.3186 5.9954 0.0847 -3.3723 5.4786 1.8279 -11.2858 -13.3738 6.8210 32.6583 -5.2094 2.4657 13.5680 -0.0000 0.0000 0.0000 -39.3914 -26.0901 56.1539 22.4386 -33.4692 -6.8262 -0.0000 0.0000 -26.9719 20.7024 -29.9647 -10.6892 -7.1250 0.0000 -0.0000 -5.9526 -1.5154 6.1408 -0.0000 0.0000 0.0000 73.4714 4.9157 -59.1071 -2.7650 4.7762 -0.1153 0.0000 0.0000 56.9230 -32.4699 29.6753 -17.4864 7.1250 -0.0000 -0.0000 -0.8481 4.0521 -0.9060
0.00 0.00 0.00 48.2837 61.4166 22.4291 0.0000 0.0000 0.0000 17.6055 51.5566 -62.7980 35.4094 12.9073 140.9775 -13.7343 -52.3747 35.9315 1.4175 7.5297 21.2945 0.0000 0.0000 0.0000 -8.6612 -17.8302 -95.4054 -37.0136 -10.6731 148.8149 -1.5532 17.1175 -23.7392 -0.0019 -0.2781 0.7641 -2.1676 -3.8034 35.0180 4.6510 -3.8172 12.8093 7.2596 -1.5354 -3.1874 5.3769 3.8764 -10.3442 -16.3595 9.4624 26.1474 -5.6724 3.3803 11.2500 -0.0000 -0.0000 0.0000 -38.8889 -20.4736 57.5815 23.1623 -34.2659 -7.2295 -0.0000 0.0000 -26.3568 16.8466 -31.9579 -9.1056 -7.1250 0.0000 -0.0000 -8.3964 -2.8026 8.8911 -0.0000 -0.0000 0.0000 66.4429 5.5980 -88.2465 -3.1782 5.4851 -0.1523 0.0000 0.0000 91.4055 -31.9509 39.2215 -21.5225 7.1250 -0.0000 -0.0000 1.6616 13.8927 2.0127
0.00 0.00 0.00 40.1871 65.6737 17.0104 0.0000 0.0000 0.0000 49.5077 63.6195 -47.7171 37.3257 10.1482 150.5421 -27.5352 -62.5517 37.5529 0.5510 4.7552 13.2116 0.0000 0.0000 0.0000 -13.2306 -40.9356 -97.4888 -38.2266 -8.3772 156.1342 0.8492 32.5772 -18.6692 -0.0585 1.5613 -4.2947 -0.0827 -4.3054 38.2912 5.5552 -3.3853 12.7635 7.1033 -1.2046 -4.3126 5.5831 4.1333 -10.1438 -18.2789 9.3265 21.0306 -6.2222 3.3148 9.4544 -0.0000 -0.0000 0.0000 -37.8634 -21.4685 55.8524 24.0604 -35.2281 -7.7414 -0.0000 0.0000 -26.3583 16.7174 -32.2603 -9.1079 -7.1250 0.0000 -0.0000 -8.5039 -3.0816 9.0469 -0.0000 -0.0000 0.0000 64.9188 4.1034 -114.1395 -4.7938 8.2361 -0.3453 0.0000 0.0000 117.9090 -24.7472 38.7823 -16.1045 7.1250 -0.0000 -0.0000 5.2303 11.3690 6.1818
0.00 0.00 0.00 35.7579 68.4974 14.1271 0.0000 0.0000 0.0000 65.0513 64.7169 -41.8582 37.8874 9.0967 153.9016 -29.7882 -63.5834 53.6748 0.9679 6.2638 17.5518 0.0000 0.0000 0.0000 -16.9458 -52.9089 -94.7281 -38.5850 -7.5233 158.7247 1.0597 37.6698 -22.1565 -0.3149 3.6074 -9.9747 0.6327 -4.0060 40.7111 5.5439 -2.5478 12.4878 6.4919 -0.7294 -5.4898 5.2052 4.1328 -9.5372 -18.1919 8.6433 17.1783 -6.0687 3.1431 7.9218 0.0000 -0.0000 0.0000 -37.2476 -23.6113 52.9436 24.0663 -35.2343 -7.7448 -0.0000 0.0000 -25.0951 16.7210 -32.2884 -9.1168 -7.1250 0.0000 -0.0000 -8.5051 -3.1104 9.0522 0.0000 -0.0000 0.0000 64.1741 4.1538 -109.3749 -4.8013 8.2489 -0.3464 0.0000 0.0000 122.4460 -7.4716 21.9820 -2.8104 7.1250 -0.0000 -0.0000 13.4133 -8.3101 11.6668
0.00 0.00 0.00 35.0411 69.4234 14.8418 0.0000 0.0000 0.0000 67.5621 65.3931 -41.0870 38.0256 8.8125 154.7895 -30.1166 -63.8818 56.6273 1.0292 6.4533 18.1054 0.0000 0.0000 0.0000 -19.3621 -55.3872 -93.4346 -38.6557 -7.3407 159.2714 1.0161 38.7379 -23.3013 -0.4201 4.1600 -11.5273 0.5325 -3.4131 41.4957 5.0560 -1.8585 12.4245 5.7715 -0.3751 -5.8655 5.6861 3.9907 -9.6662 -19.0319 8.0962 14.7844 -6.4360 2.9451 7.1594 0.0000 -0.0000 0.0000 -37.2196 -25.8009 50.3412 23.7953 -34.9470 -7.5890 -0.0000 0.0000 -24.5446 16.6493 -31.8205 -8.9604 -7.1250 0.0000 -0.0000 -8.4924 -2.6300 8.9705 0.0000 -0.0000 0.0000 63.6720 5.7629 -72.2032 -3.8621 6.6541 -0.2246 0.0000 0.0000 95.4703 8.2702 14.2625 2.0509 7.1250 -0.0000 -0.0000 23.8070 -16.2162 17.8400
0.00 0.00 0.00 33.0084 70.4481 14.9050 0.0000 0.0000 0.0000 62.0595 65.1123 -46.3195 37.9506 8.9681 154.3043 -23.9707 -62.0141 59.2039 1.4388 7.5834 21.4558 0.0000 0.0000 0.0000 -18.8878 -53.8090 -93.2165 -38.5712 -7.5584 158.6195 1.0499 38.1287 -22.6107 -0.4334 4.2246 -11.7094 -0.3295 -3.2056 42.0609 5.2058 -1.9331 11.9128 6.4390 -0.4373 -6.5761 4.3300 4.4062 -8.6873 -19.1690 8.5139 12.4926 -6.1563 3.2373 6.2754 0.0000 -0.0000 0.0000 -38.8326 -25.6421 47.4045 23.7189 -34.8656 -7.5453 -0.0000 0.0000 -25.6077 16.5989 -31.4704 -8.8455 -7.1250 0.0000 -0.0000 -8.4822 -2.2711 8.9084 0.0000 -0.0000 0.0000 61.5263 8.1010 -32.7281 -3.6636 6.3155 -0.2022 0.0000 0.0000 65.1957 13.4393 17.0913 4.0172 7.1250 -0.0000 -0.0000 26.4734 -13.4850 22.1293
